<svg id="Layer_1" data-name="Layer 1" xmlns="http://www.w3.org/2000/svg" viewBox="0 0 2000 1690.52"><defs><style>.cls-1{fill:#fff;}</style></defs><path class="cls-1" d="M587.32,1537.75c-16.12,0-32.25.16-48.36,0-53.36-.61-90.91-49.69-72.79-99.76,13.38-37,31.28-72.73,50.61-107.09,13.3-23.62,16.21-44.8,10.35-71.57Q424.6,790.51,324.64,321.17c-2.07-9.68-5.36-12.65-15.27-12.59q-115.73.63-231.47.14c-47.58-.19-82.22-39.2-77.46-86.36,3.22-31.93,30.9-61.3,62.66-66.08a144.24,144.24,0,0,1,21.18-1.46q145.77-.13,291.54,0c45.39,0,70.29,16.75,83.45,60.37,8.5,28.2,12.88,57.64,19.11,86.52.43,2,.9,3.95,1.61,7H496.2q709.43,0,1418.87-.18c24.2,0,45.14,5.83,62.35,23.37,14.76,15,22.46,33,22.47,54q.15,306.55-.08,613.1c-.07,42.68-30,73.58-72.39,78.42-112.22,12.82-224.38,26.17-336.57,39.23Q1424.43,1136,1258,1155.19q-187.53,21.9-375,44-99.36,11.64-198.72,23.13c-2,.23-4.05.57-9.36,1.33,19.29,54.37,26.07,107.92-12.87,157.67l3,2.76h15.22q539.91,0,1079.8-.18c25,0,47,5.56,64.46,24.34,22,23.74,27.8,51.46,15.54,81-12.32,29.69-35.68,46.74-68.51,48.29-17.27.81-34.62.14-51.92.67,87.36,19.85,137.08,96.64,124.58,176.91-11.89,76.35-77.33,130.88-154.22,130-74-.84-139.86-58.47-150.22-129.15-11.77-80.19,37.49-158.26,127.78-177.71h-1024c43,9.86,77,33.2,101.24,69.92,24.83,37.62,30,79,19.43,122.29C747.25,1799.6,679,1849.15,607.31,1845c-75.34-4.34-134.75-59.22-145-134.7C453.18,1643.79,490.88,1561.77,587.32,1537.75Zm54-482.71L1859.47,943.27V440L501.1,418.53C548,631.58,594.54,842.65,641.33,1055Z" transform="translate(0 -154.74)"/></svg>